<mxfile host="app.diagrams.net" modified="2020-12-06T10:48:54.150Z" agent="5.0 (Windows)" etag="oxRX-J-wQ6zDlHF3ORxz" version="13.10.9" type="github">
  <diagram name="Page-1" id="e7e014a7-5840-1c2e-5031-d8a46d1fe8dd">
    <mxGraphModel dx="868" dy="451" grid="1" gridSize="10" guides="1" tooltips="1" connect="1" arrows="1" fold="1" page="1" pageScale="1" pageWidth="827" pageHeight="1169" background="#ffffff" math="0" shadow="0">
      <root>
        <mxCell id="0" />
        <mxCell id="1" parent="0" />
        <mxCell id="2" value="Policeman" style="swimlane;whiteSpace=wrap;" parent="1" vertex="1">
          <mxGeometry x="30.5" y="70" width="250" height="1070" as="geometry" />
        </mxCell>
        <mxCell id="5" value="" style="ellipse;shape=startState;fillColor=#000000;strokeColor=#ff0000;" parent="2" vertex="1">
          <mxGeometry x="101.75" y="30" width="30" height="30" as="geometry" />
        </mxCell>
        <mxCell id="cpGcoPR04KhHqJ3YVmdl-38" style="edgeStyle=orthogonalEdgeStyle;rounded=0;orthogonalLoop=1;jettySize=auto;html=1;entryX=0.602;entryY=0;entryDx=0;entryDy=0;entryPerimeter=0;strokeColor=#FF0000;" edge="1" parent="2" source="nm8uezcnsHm4D2PlBoK7-41" target="nm8uezcnsHm4D2PlBoK7-46">
          <mxGeometry relative="1" as="geometry" />
        </mxCell>
        <mxCell id="nm8uezcnsHm4D2PlBoK7-41" value="Turn on the gun" style="rounded=1;whiteSpace=wrap;html=1;" parent="2" vertex="1">
          <mxGeometry x="65" y="170" width="120" height="40" as="geometry" />
        </mxCell>
        <mxCell id="nm8uezcnsHm4D2PlBoK7-46" value="Take fingerprint" style="rounded=1;whiteSpace=wrap;html=1;glass=1;" parent="2" vertex="1">
          <mxGeometry x="56.75" y="250" width="120" height="60" as="geometry" />
        </mxCell>
        <mxCell id="nm8uezcnsHm4D2PlBoK7-48" value="" style="edgeStyle=elbowEdgeStyle;elbow=horizontal;verticalAlign=bottom;endArrow=open;endSize=8;strokeColor=#FF0000;endFill=1;rounded=0;entryX=0;entryY=0.5;entryDx=0;entryDy=0;" parent="2" target="nm8uezcnsHm4D2PlBoK7-47" edge="1">
          <mxGeometry x="-4" y="83.5" as="geometry">
            <mxPoint x="275.5" y="241.5" as="targetPoint" />
            <mxPoint x="175.5" y="270" as="sourcePoint" />
            <Array as="points">
              <mxPoint x="280" y="270" />
            </Array>
          </mxGeometry>
        </mxCell>
        <mxCell id="nm8uezcnsHm4D2PlBoK7-86" value="Try to authorize" style="rounded=1;whiteSpace=wrap;html=1;glass=1;fillColor=#FFFFFF;" parent="2" vertex="1">
          <mxGeometry x="55" y="612" width="120" height="60" as="geometry" />
        </mxCell>
        <mxCell id="nm8uezcnsHm4D2PlBoK7-74" value="" style="html=1;points=[];perimeter=orthogonalPerimeter;strokeColor=none;glass=1;rotation=90;fillColor=#000000;" parent="2" vertex="1">
          <mxGeometry x="207.7" y="592" width="4.62" height="401.75" as="geometry" />
        </mxCell>
        <mxCell id="nm8uezcnsHm4D2PlBoK7-97" value="" style="edgeStyle=elbowEdgeStyle;elbow=horizontal;verticalAlign=bottom;endArrow=open;endSize=8;strokeColor=#FF0000;endFill=1;rounded=0;exitX=0.5;exitY=0.214;exitDx=0;exitDy=0;exitPerimeter=0;entryX=-0.122;entryY=0.738;entryDx=0;entryDy=0;entryPerimeter=0;" parent="2" target="nm8uezcnsHm4D2PlBoK7-74" edge="1">
          <mxGeometry x="-62" y="426.18000000000006" as="geometry">
            <mxPoint x="114.5" y="760" as="targetPoint" />
            <mxPoint x="114.53049999999985" y="671.9950000000001" as="sourcePoint" />
          </mxGeometry>
        </mxCell>
        <mxCell id="38" value="" style="ellipse;shape=endState;fillColor=#000000;strokeColor=#ff0000" parent="2" vertex="1">
          <mxGeometry x="110" y="1030" width="30" height="30" as="geometry" />
        </mxCell>
        <mxCell id="nm8uezcnsHm4D2PlBoK7-104" value="" style="shape=offPageConnector;whiteSpace=wrap;html=1;glass=1;fillColor=#FFFFFF;rotation=90;" parent="2" vertex="1">
          <mxGeometry x="101.75" y="811.5" width="46.5" height="177" as="geometry" />
        </mxCell>
        <mxCell id="nm8uezcnsHm4D2PlBoK7-105" value="Get remote access" style="text;html=1;strokeColor=none;fillColor=none;align=center;verticalAlign=middle;whiteSpace=wrap;rounded=0;glass=1;" parent="2" vertex="1">
          <mxGeometry x="77.82000000000001" y="890" width="134.5" height="20" as="geometry" />
        </mxCell>
        <mxCell id="nm8uezcnsHm4D2PlBoK7-110" value="Act" style="rounded=1;whiteSpace=wrap;html=1;glass=1;fillColor=#FFFFFF;" parent="2" vertex="1">
          <mxGeometry x="77.25" y="970" width="95.5" height="40" as="geometry" />
        </mxCell>
        <mxCell id="nm8uezcnsHm4D2PlBoK7-111" value="" style="endArrow=classic;html=1;strokeColor=#FF0000;" parent="2" edge="1">
          <mxGeometry width="50" height="50" relative="1" as="geometry">
            <mxPoint x="124.5" y="1010" as="sourcePoint" />
            <mxPoint x="124.5" y="1030" as="targetPoint" />
          </mxGeometry>
        </mxCell>
        <mxCell id="cpGcoPR04KhHqJ3YVmdl-40" style="edgeStyle=orthogonalEdgeStyle;rounded=0;orthogonalLoop=1;jettySize=auto;html=1;strokeColor=#FF0000;" edge="1" parent="2" source="cpGcoPR04KhHqJ3YVmdl-39" target="nm8uezcnsHm4D2PlBoK7-41">
          <mxGeometry relative="1" as="geometry" />
        </mxCell>
        <mxCell id="cpGcoPR04KhHqJ3YVmdl-39" value="Ready to use" style="rounded=1;whiteSpace=wrap;html=1;" vertex="1" parent="2">
          <mxGeometry x="65" y="100" width="120" height="40" as="geometry" />
        </mxCell>
        <mxCell id="3" value="System" style="swimlane;whiteSpace=wrap" parent="1" vertex="1">
          <mxGeometry x="281" y="70" width="305" height="1070" as="geometry" />
        </mxCell>
        <mxCell id="nm8uezcnsHm4D2PlBoK7-114" style="edgeStyle=orthogonalEdgeStyle;rounded=0;orthogonalLoop=1;jettySize=auto;html=1;strokeColor=#FF0000;" parent="3" source="nm8uezcnsHm4D2PlBoK7-47" target="nm8uezcnsHm4D2PlBoK7-50" edge="1">
          <mxGeometry relative="1" as="geometry" />
        </mxCell>
        <mxCell id="nm8uezcnsHm4D2PlBoK7-47" value="Check correctness" style="rounded=1;whiteSpace=wrap;html=1;glass=1;" parent="3" vertex="1">
          <mxGeometry x="73" y="240" width="120" height="60" as="geometry" />
        </mxCell>
        <mxCell id="nm8uezcnsHm4D2PlBoK7-50" value="" style="rhombus;whiteSpace=wrap;html=1;glass=1;" parent="3" vertex="1">
          <mxGeometry x="102.5" y="334" width="45" height="48" as="geometry" />
        </mxCell>
        <mxCell id="nm8uezcnsHm4D2PlBoK7-53" value="" style="edgeStyle=elbowEdgeStyle;elbow=horizontal;verticalAlign=bottom;endArrow=open;endSize=8;strokeColor=#FF0000;endFill=1;rounded=0;entryX=0.5;entryY=0;entryDx=0;entryDy=0;" parent="3" target="nm8uezcnsHm4D2PlBoK7-70" edge="1">
          <mxGeometry x="-664.5" y="-54" as="geometry">
            <mxPoint x="125" y="400" as="targetPoint" />
            <mxPoint x="125" y="380" as="sourcePoint" />
          </mxGeometry>
        </mxCell>
        <mxCell id="nm8uezcnsHm4D2PlBoK7-54" value="[ Correct data ]" style="text;html=1;strokeColor=none;fillColor=none;align=center;verticalAlign=middle;whiteSpace=wrap;rounded=0;glass=1;" parent="3" vertex="1">
          <mxGeometry x="200" y="334" width="105" height="20" as="geometry" />
        </mxCell>
        <mxCell id="nm8uezcnsHm4D2PlBoK7-69" value="[ Incorrect&amp;nbsp; data ]" style="text;html=1;strokeColor=none;fillColor=none;align=center;verticalAlign=middle;whiteSpace=wrap;rounded=0;glass=1;" parent="3" vertex="1">
          <mxGeometry x="133" y="382" width="105" height="20" as="geometry" />
        </mxCell>
        <mxCell id="nm8uezcnsHm4D2PlBoK7-70" value="" style="rhombus;whiteSpace=wrap;html=1;glass=1;" parent="3" vertex="1">
          <mxGeometry x="102.5" y="420" width="45" height="48" as="geometry" />
        </mxCell>
        <mxCell id="nm8uezcnsHm4D2PlBoK7-71" value="" style="html=1;points=[];perimeter=orthogonalPerimeter;strokeColor=none;glass=1;rotation=90;fillColor=#000000;" parent="3" vertex="1">
          <mxGeometry x="-38.18" y="320.94" width="4.62" height="401.75" as="geometry" />
        </mxCell>
        <mxCell id="nm8uezcnsHm4D2PlBoK7-72" value="" style="edgeStyle=elbowEdgeStyle;elbow=horizontal;verticalAlign=bottom;endArrow=open;endSize=8;strokeColor=#FF0000;endFill=1;rounded=0;" parent="3" edge="1">
          <mxGeometry x="-1049" y="-80" as="geometry">
            <mxPoint x="125" y="522" as="targetPoint" />
            <mxPoint x="125" y="470" as="sourcePoint" />
          </mxGeometry>
        </mxCell>
        <mxCell id="nm8uezcnsHm4D2PlBoK7-75" value="" style="shape=offPageConnector;whiteSpace=wrap;html=1;glass=1;fillColor=#FFFFFF;rotation=-90;size=0.43288590604026844;" parent="3" vertex="1">
          <mxGeometry x="82" y="583.25" width="51" height="149" as="geometry" />
        </mxCell>
        <mxCell id="nm8uezcnsHm4D2PlBoK7-76" value="[ Incorrect&amp;nbsp; data counter == 3 ]" style="text;html=1;strokeColor=none;fillColor=none;align=center;verticalAlign=middle;whiteSpace=wrap;rounded=0;glass=1;" parent="3" vertex="1">
          <mxGeometry x="129" y="482" width="171" height="20" as="geometry" />
        </mxCell>
        <mxCell id="nm8uezcnsHm4D2PlBoK7-81" value="" style="edgeStyle=elbowEdgeStyle;elbow=horizontal;verticalAlign=bottom;endArrow=open;endSize=8;strokeColor=#FF0000;endFill=1;rounded=0;exitX=0.5;exitY=0.214;exitDx=0;exitDy=0;exitPerimeter=0;entryX=0.348;entryY=0.053;entryDx=0;entryDy=0;entryPerimeter=0;" parent="3" source="nm8uezcnsHm4D2PlBoK7-71" target="nm8uezcnsHm4D2PlBoK7-84" edge="1">
          <mxGeometry x="183.5" y="404" as="geometry">
            <mxPoint x="79" y="562" as="targetPoint" />
            <mxPoint x="119" y="542" as="sourcePoint" />
          </mxGeometry>
        </mxCell>
        <mxCell id="nm8uezcnsHm4D2PlBoK7-83" value="" style="edgeStyle=elbowEdgeStyle;elbow=horizontal;verticalAlign=bottom;endArrow=open;endSize=8;strokeColor=#FF0000;endFill=1;rounded=0;" parent="3" edge="1">
          <mxGeometry x="-97.5" y="356.18" as="geometry">
            <mxPoint x="79" y="632" as="targetPoint" />
            <mxPoint x="79" y="592" as="sourcePoint" />
          </mxGeometry>
        </mxCell>
        <mxCell id="nm8uezcnsHm4D2PlBoK7-84" value="Create error data frame" style="rounded=1;whiteSpace=wrap;html=1;glass=1;fillColor=#FFFFFF;" parent="3" vertex="1">
          <mxGeometry x="22.5" y="572" width="162.5" height="38" as="geometry" />
        </mxCell>
        <mxCell id="nm8uezcnsHm4D2PlBoK7-85" value="Send message to local distributor" style="text;html=1;strokeColor=none;fillColor=none;align=center;verticalAlign=middle;whiteSpace=wrap;rounded=0;glass=1;" parent="3" vertex="1">
          <mxGeometry x="27.5" y="647.75" width="95" height="20" as="geometry" />
        </mxCell>
        <mxCell id="nm8uezcnsHm4D2PlBoK7-87" value="" style="edgeStyle=elbowEdgeStyle;elbow=horizontal;verticalAlign=bottom;endArrow=open;endSize=8;strokeColor=#FF0000;endFill=1;rounded=0;exitX=0.5;exitY=0.214;exitDx=0;exitDy=0;exitPerimeter=0;" parent="3" edge="1">
          <mxGeometry x="-94.25" y="436.18" as="geometry">
            <mxPoint x="82" y="712" as="targetPoint" />
            <mxPoint x="82.28049999999985" y="681.9950000000001" as="sourcePoint" />
          </mxGeometry>
        </mxCell>
        <mxCell id="nm8uezcnsHm4D2PlBoK7-94" value="&lt;div&gt;Set 5 minute&lt;/div&gt;&lt;div&gt;time block increased &lt;br&gt;&lt;/div&gt;&lt;div&gt;every trial&lt;br&gt;&lt;/div&gt;&lt;div&gt;&lt;br&gt;&lt;/div&gt;" style="rounded=1;whiteSpace=wrap;html=1;glass=1;fillColor=#FFFFFF;" parent="3" vertex="1">
          <mxGeometry x="30" y="712" width="150" height="58" as="geometry" />
        </mxCell>
        <mxCell id="nm8uezcnsHm4D2PlBoK7-98" value="" style="edgeStyle=elbowEdgeStyle;elbow=horizontal;verticalAlign=bottom;endArrow=open;endSize=8;strokeColor=#FF0000;endFill=1;rounded=0;exitX=0.5;exitY=0.214;exitDx=0;exitDy=0;exitPerimeter=0;" parent="3" edge="1">
          <mxGeometry x="-375.25" y="396.18000000000006" as="geometry">
            <mxPoint x="82" y="790" as="targetPoint" />
            <mxPoint x="82.28049999999985" y="769.9950000000001" as="sourcePoint" />
          </mxGeometry>
        </mxCell>
        <mxCell id="4" value="Indentification" style="swimlane;whiteSpace=wrap" parent="1" vertex="1">
          <mxGeometry x="586" y="70" width="224.5" height="1070" as="geometry" />
        </mxCell>
        <mxCell id="nm8uezcnsHm4D2PlBoK7-113" style="edgeStyle=orthogonalEdgeStyle;rounded=0;orthogonalLoop=1;jettySize=auto;html=1;strokeColor=#FF0000;" parent="4" source="nm8uezcnsHm4D2PlBoK7-52" target="nm8uezcnsHm4D2PlBoK7-106" edge="1">
          <mxGeometry relative="1" as="geometry" />
        </mxCell>
        <mxCell id="nm8uezcnsHm4D2PlBoK7-52" value="Authorization" style="rounded=1;whiteSpace=wrap;html=1;glass=1;" parent="4" vertex="1">
          <mxGeometry x="85" y="328" width="120" height="60" as="geometry" />
        </mxCell>
        <mxCell id="nm8uezcnsHm4D2PlBoK7-106" value="" style="rhombus;whiteSpace=wrap;html=1;glass=1;" parent="4" vertex="1">
          <mxGeometry x="122.5" y="876" width="45" height="48" as="geometry" />
        </mxCell>
        <mxCell id="nm8uezcnsHm4D2PlBoK7-44" value="&lt;b&gt;&lt;font style=&quot;font-size: 14px&quot;&gt;AKTYWACJA&lt;/font&gt;&lt;/b&gt;" style="text;html=1;strokeColor=none;fillColor=none;align=center;verticalAlign=middle;whiteSpace=wrap;rounded=0;glass=1;" parent="1" vertex="1">
          <mxGeometry x="70" y="30" width="40" height="20" as="geometry" />
        </mxCell>
        <mxCell id="nm8uezcnsHm4D2PlBoK7-51" value="" style="edgeStyle=elbowEdgeStyle;elbow=horizontal;verticalAlign=bottom;endArrow=open;endSize=8;strokeColor=#FF0000;endFill=1;rounded=0;entryX=0;entryY=0.5;entryDx=0;entryDy=0;exitX=1;exitY=0.5;exitDx=0;exitDy=0;" parent="1" source="nm8uezcnsHm4D2PlBoK7-50" target="nm8uezcnsHm4D2PlBoK7-52" edge="1">
          <mxGeometry x="147.5" y="23.5" as="geometry">
            <mxPoint x="661.5" y="310" as="targetPoint" />
            <mxPoint x="491.5" y="309.5" as="sourcePoint" />
            <Array as="points">
              <mxPoint x="596" y="400" />
            </Array>
          </mxGeometry>
        </mxCell>
        <mxCell id="nm8uezcnsHm4D2PlBoK7-80" value="" style="edgeStyle=elbowEdgeStyle;elbow=horizontal;verticalAlign=bottom;endArrow=open;endSize=8;strokeColor=#FF0000;endFill=1;rounded=0" parent="1" edge="1">
          <mxGeometry x="101.75" y="-30" as="geometry">
            <mxPoint x="147.75" y="168" as="targetPoint" />
            <mxPoint x="147.25" y="128" as="sourcePoint" />
          </mxGeometry>
        </mxCell>
        <mxCell id="nm8uezcnsHm4D2PlBoK7-92" value="" style="edgeStyle=elbowEdgeStyle;elbow=horizontal;verticalAlign=bottom;endArrow=open;endSize=8;strokeColor=#FF0000;endFill=1;rounded=0;" parent="1" edge="1">
          <mxGeometry x="-97.5" y="296.18" as="geometry">
            <mxPoint x="360" y="700" as="targetPoint" />
            <mxPoint x="360" y="680" as="sourcePoint" />
          </mxGeometry>
        </mxCell>
        <mxCell id="nm8uezcnsHm4D2PlBoK7-101" value="" style="edgeStyle=elbowEdgeStyle;elbow=horizontal;verticalAlign=bottom;endArrow=open;endSize=8;strokeColor=#FF0000;endFill=1;rounded=0;" parent="1" source="nm8uezcnsHm4D2PlBoK7-100" edge="1">
          <mxGeometry x="-154.03" y="503.99" as="geometry">
            <mxPoint x="304" y="950" as="targetPoint" />
            <mxPoint x="304" y="863" as="sourcePoint" />
            <Array as="points">
              <mxPoint x="304" y="863" />
            </Array>
          </mxGeometry>
        </mxCell>
        <mxCell id="nm8uezcnsHm4D2PlBoK7-100" value="" style="shape=sumEllipse;perimeter=ellipsePerimeter;whiteSpace=wrap;html=1;backgroundOutline=1;glass=1;fillColor=#FFFFFF;" parent="1" vertex="1">
          <mxGeometry x="290" y="920" width="28" height="28" as="geometry" />
        </mxCell>
        <mxCell id="nm8uezcnsHm4D2PlBoK7-103" value="" style="edgeStyle=elbowEdgeStyle;elbow=horizontal;verticalAlign=bottom;endArrow=open;endSize=8;strokeColor=#FF0000;endFill=1;rounded=0;" parent="1" target="nm8uezcnsHm4D2PlBoK7-100" edge="1">
          <mxGeometry x="-154.03" y="503.99" as="geometry">
            <mxPoint x="304" y="950" as="targetPoint" />
            <mxPoint x="304" y="863" as="sourcePoint" />
            <Array as="points" />
          </mxGeometry>
        </mxCell>
        <mxCell id="nm8uezcnsHm4D2PlBoK7-96" value="" style="edgeStyle=elbowEdgeStyle;elbow=horizontal;verticalAlign=bottom;endArrow=open;endSize=8;strokeColor=#FF0000;endFill=1;rounded=0;exitX=0.973;exitY=0.742;exitDx=0;exitDy=0;exitPerimeter=0;entryX=0.5;entryY=0;entryDx=0;entryDy=0;" parent="1" source="nm8uezcnsHm4D2PlBoK7-71" target="nm8uezcnsHm4D2PlBoK7-86" edge="1">
          <mxGeometry x="-31.53" y="324.18" as="geometry">
            <mxPoint x="145.97" y="628.18" as="targetPoint" />
            <mxPoint x="145.00049999999985" y="569.9950000000001" as="sourcePoint" />
            <Array as="points">
              <mxPoint x="145.47" y="548.1800000000001" />
            </Array>
          </mxGeometry>
        </mxCell>
        <mxCell id="nm8uezcnsHm4D2PlBoK7-109" style="edgeStyle=orthogonalEdgeStyle;rounded=0;orthogonalLoop=1;jettySize=auto;html=1;exitX=0.5;exitY=0;exitDx=0;exitDy=0;strokeColor=#FF0000;" parent="1" source="nm8uezcnsHm4D2PlBoK7-104" target="nm8uezcnsHm4D2PlBoK7-106" edge="1">
          <mxGeometry relative="1" as="geometry" />
        </mxCell>
        <mxCell id="nm8uezcnsHm4D2PlBoK7-115" style="edgeStyle=orthogonalEdgeStyle;rounded=0;orthogonalLoop=1;jettySize=auto;html=1;strokeColor=#FF0000;" parent="1" source="nm8uezcnsHm4D2PlBoK7-106" target="nm8uezcnsHm4D2PlBoK7-110" edge="1">
          <mxGeometry relative="1" as="geometry">
            <Array as="points">
              <mxPoint x="731" y="1010" />
              <mxPoint x="156" y="1010" />
            </Array>
          </mxGeometry>
        </mxCell>
      </root>
    </mxGraphModel>
  </diagram>
</mxfile>
